<svg width="97" height="38" viewBox="0 0 97 38" fill="none" xmlns="http://www.w3.org/2000/svg">
<path d="M16.8332 37.1086V30.7436C16.816 30.6783 16.816 30.6097 16.8332 30.5444H21.1811C21.2406 30.5308 21.3025 30.5308 21.362 30.5444C21.3652 30.5682 21.3652 30.5923 21.362 30.616C21.3656 30.6666 21.3656 30.7174 21.362 30.768V37.1086H16.8332Z" fill="white"/>
<path d="M37.3688 21.2869V28.7676L37.2007 28.878L35.499 29.8927L28.7988 33.8878L23.5793 36.9879C23.5379 37.0228 23.4889 37.0473 23.4363 37.0595C23.4327 37.0343 23.4327 37.0088 23.4363 36.9836V30.4961C23.4363 30.4345 23.5299 30.4137 23.5793 30.3793L24.9192 29.591L29.9778 26.5877C30.5498 26.2573 31.1097 25.899 31.6724 25.5844L31.7996 25.5128C31.8186 25.5009 31.8345 25.4847 31.8461 25.4655C31.8577 25.4463 31.8648 25.4247 31.8668 25.4024V21.4969C31.8476 21.4316 31.8476 21.3622 31.8668 21.2969H37.2072C37.2594 21.2803 37.3149 21.2768 37.3688 21.2869Z" fill="white"/>
<path d="M31.8421 16.7131C31.8421 16.6759 31.8421 16.6415 31.8421 16.6028V12.7381C31.8421 12.4629 31.8421 12.5109 31.6483 12.387L26.9579 9.63158L23.5681 7.62507C23.4136 7.53549 23.4337 7.54983 23.4337 7.38429V1.11823C23.4179 1.06882 23.4179 1.01572 23.4337 0.966309C23.4797 0.974892 23.5232 0.993751 23.5609 1.02149L24.7764 1.74527L33.2292 6.74579L37.2496 9.10129C37.4234 9.20448 37.4033 9.17725 37.4033 9.37719V16.6787H37.3097C37.2718 16.6816 37.2338 16.6816 37.196 16.6787H31.8335L31.8421 16.7131Z" fill="white"/>
<path d="M14.802 30.4549V37.0327C14.7483 37.0327 14.7147 37.0327 14.6811 36.9912L13.2812 36.1577L8.53713 33.3479L3.17463 30.1446L1.02034 28.8633L0.873047 28.7673V21.2866C0.896576 21.2812 0.921018 21.2812 0.944547 21.2866H6.22196C6.28268 21.2658 6.34857 21.2658 6.40929 21.2866C6.43254 21.3557 6.4394 21.4293 6.42931 21.5016V25.2624C6.42645 25.3175 6.42645 25.3728 6.42931 25.4279C6.42997 25.4481 6.4351 25.4679 6.44433 25.4859C6.45358 25.5038 6.46679 25.5192 6.48294 25.5311L6.58375 25.5863L12.9801 29.3908L14.669 30.394L14.802 30.4549Z" fill="white"/>
<path d="M6.42749 16.6788H0.906979C0.904121 16.6491 0.904121 16.6191 0.906979 16.5893C0.903403 16.5432 0.903403 16.497 0.906979 16.451V9.41813C0.906979 9.16374 0.906979 9.21891 1.08787 9.09494L7.47926 5.2926L13.7441 1.52465L14.6586 0.987189L14.7923 0.915527C14.7962 0.939255 14.7962 0.963461 14.7923 0.987189C14.7959 1.03322 14.7959 1.07946 14.7923 1.12549V7.32419C14.7923 7.55852 14.7923 7.51696 14.6114 7.63448L6.56835 12.3942C6.361 12.5182 6.37387 12.4766 6.37387 12.7317V16.5133C6.4041 16.5637 6.42244 16.6203 6.42749 16.6788Z" fill="white"/>
<path d="M21.3809 7.44171H16.8607C16.855 7.40756 16.855 7.37268 16.8607 7.33852C16.8571 7.29728 16.8571 7.25579 16.8607 7.21455V1.12334C16.8433 1.05274 16.8433 0.978961 16.8607 0.908359C16.8873 0.905491 16.9142 0.905491 16.9408 0.908359H21.1664C21.2346 0.891875 21.3056 0.891875 21.3738 0.908359C21.3774 0.935952 21.3774 0.963893 21.3738 0.991486C21.3773 1.03034 21.3773 1.06944 21.3738 1.10829V7.2253C21.3897 7.29634 21.3921 7.36977 21.3809 7.44171Z" fill="white"/>
<path d="M96.8067 11.0159C96.7908 11.0421 96.7774 11.0697 96.7667 11.0983C96.7519 11.3928 96.6543 11.677 96.4849 11.9181C96.3504 12.1309 96.1722 12.3127 95.9623 12.4513C95.7541 12.5887 95.5187 12.6794 95.2723 12.7171C94.9073 12.7918 94.5286 12.7607 94.1805 12.6276C93.8835 12.5245 93.6198 12.3428 93.4176 12.1016C93.2126 11.8572 93.076 11.5627 93.0215 11.2481C92.9496 10.8832 92.9725 10.5059 93.088 10.1524C93.1878 9.84179 93.3685 9.5635 93.6114 9.34621C93.8511 9.13093 94.1451 8.98568 94.4615 8.92627C94.835 8.8402 95.2252 8.86181 95.5869 8.98862C95.8858 9.09086 96.1516 9.27209 96.3562 9.51318C96.563 9.75703 96.7021 10.0511 96.7595 10.3659C96.7631 10.4096 96.7631 10.4534 96.7595 10.4971C96.7559 10.5444 96.7705 10.5913 96.8003 10.6282L96.8067 11.0159Z" fill="white"/>
<path d="M76.8466 23.387C76.7926 23.4133 76.7328 23.4252 76.6729 23.4214H65.7848C65.7737 23.4436 65.768 23.4682 65.7684 23.4931C65.7678 23.5179 65.7735 23.5426 65.7848 23.5647C65.888 24.2974 66.1611 24.9956 66.5821 25.6035C67.0524 26.2617 67.7262 26.746 68.499 26.9815C68.8159 27.0748 69.1411 27.137 69.4699 27.1671C69.7597 27.1915 70.051 27.1915 70.3408 27.1671C70.797 27.1478 71.2483 27.0645 71.6814 26.9199C72.4257 26.6624 73.0608 26.1597 73.4832 25.4938L73.6262 25.2789C73.6492 25.2755 73.6727 25.2775 73.6947 25.2847C73.7168 25.2919 73.7369 25.3041 73.7535 25.3204L74.846 25.822L76.0051 26.3523L76.1588 26.424C76.1501 26.4548 76.1389 26.4847 76.1252 26.5136C75.3489 27.8878 74.1015 28.9331 72.6145 29.4553C72.215 29.5908 71.8048 29.6922 71.3883 29.7584C70.7643 29.8624 70.1313 29.9016 69.4993 29.8752C68.0695 29.8392 66.6884 29.3477 65.556 28.4721C64.41 27.5877 63.5649 26.3697 63.1365 24.985C62.9896 24.5111 62.8864 24.0246 62.8283 23.5318C62.7473 22.9707 62.7234 22.4029 62.7568 21.837C62.8045 20.324 63.3143 18.8622 64.2176 17.6491C64.9502 16.6603 65.9394 15.8919 67.0776 15.4276C67.6061 15.2039 68.1594 15.0442 68.7256 14.9518C69.2345 14.8658 69.7507 14.8313 70.2665 14.8486C70.4905 14.847 70.7143 14.8609 70.9364 14.8901C72.0048 14.9808 73.0309 15.3499 73.913 15.9607C74.8042 16.5789 75.5233 17.4148 76.0022 18.3893C76.3368 19.0517 76.5737 19.7592 76.7057 20.4897C76.8429 21.237 76.899 21.997 76.8731 22.7564V23.1899C76.874 23.2566 76.8651 23.323 76.8466 23.387ZM65.792 20.9828H73.7785C73.8583 20.9964 73.9398 20.9964 74.0195 20.9828C74.0399 20.9126 74.0399 20.838 74.0195 20.7678C74.0102 20.659 73.9945 20.5508 73.9723 20.4439C73.8958 19.9658 73.7152 19.5105 73.4432 19.1103C73.1737 18.714 72.819 18.3834 72.405 18.1428C71.807 17.7869 71.1301 17.5857 70.4352 17.5574C70.0874 17.5265 69.7376 17.5265 69.3899 17.5574C69.0787 17.5939 68.7714 17.6584 68.4718 17.7501C67.6581 17.9837 66.9488 18.4895 66.4619 19.1834C66.1291 19.6981 65.9014 20.2739 65.792 20.8774C65.789 20.9125 65.789 20.9477 65.792 20.9828Z" fill="white"/>
<path d="M90.957 9.37022C90.6153 10.1277 90.2871 10.8851 89.9382 11.6426C89.9202 11.6761 89.9001 11.7084 89.8781 11.7393L89.7844 11.6677C89.3416 11.2885 88.8228 11.0089 88.2629 10.8479C88.0021 10.7691 87.7316 10.7274 87.4593 10.7239C87.04 10.7082 86.6221 10.7814 86.233 10.9389C85.95 11.0532 85.6955 11.2284 85.4873 11.452C85.2771 11.6781 85.1178 11.947 85.0204 12.2403C84.9046 12.5585 84.8414 12.8934 84.8331 13.232V15.2436C84.813 15.2967 84.813 15.3553 84.8331 15.4084C84.8567 15.4124 84.8809 15.4124 84.9046 15.4084H89.7487C89.8105 15.3955 89.8742 15.3955 89.936 15.4084V17.8449C89.9503 17.9013 89.9503 17.9604 89.936 18.0169C89.8885 18.0343 89.8363 18.0343 89.7887 18.0169H84.8309C84.8252 18.0534 84.8252 18.0907 84.8309 18.1272V29.6074C84.8309 29.6668 84.8309 29.7263 84.8309 29.7865C84.8309 29.8467 84.8309 29.8618 84.7501 29.8689H82.0725C82.0129 29.8825 81.9511 29.8825 81.8916 29.8689C81.8944 29.8437 81.8944 29.8182 81.8916 29.793V18.1659C81.8916 18.1107 81.8916 18.09 81.8201 18.09H79.4684C79.4085 18.1 79.3474 18.1 79.2875 18.09V18.0076C79.284 17.9732 79.284 17.9387 79.2875 17.9044V15.6313C79.2739 15.5747 79.2739 15.5158 79.2875 15.4593C79.3337 15.4423 79.3844 15.4423 79.4305 15.4593H81.8222C81.8694 15.4593 81.8894 15.4593 81.8937 15.3762V13.1654C81.902 12.405 82.0592 11.6536 82.3563 10.9539C82.7959 9.87549 83.6445 9.01595 84.7158 8.56403C85.1434 8.37644 85.594 8.24679 86.0557 8.1785C86.5615 8.10391 87.0742 8.08756 87.5837 8.12977C88.6423 8.17506 89.6705 8.49829 90.5652 9.0671C90.6766 9.1387 90.7838 9.2167 90.8863 9.30071L90.957 9.37022Z" fill="white"/>
<path d="M54.0743 26.7987C54.0742 26.7837 54.0778 26.7689 54.0848 26.7557C54.0918 26.7424 54.1019 26.7311 54.1143 26.7227C54.1744 26.4547 54.228 26.186 54.2888 25.9173C54.3082 25.8301 54.335 25.7448 54.3689 25.6622L58.0068 16.6457L58.4065 15.631L58.473 15.4877C58.5326 15.4748 58.5943 15.4748 58.6539 15.4877H61.6962C61.7 15.5405 61.6883 15.5933 61.6626 15.6396C61.5153 15.9908 61.3609 16.3283 61.2136 16.7002C60.3203 18.8266 59.427 20.9574 58.5338 23.0924C57.6405 25.2274 56.7181 27.4269 55.7667 29.6909L55.6723 29.898H52.4999C52.4621 29.8529 52.4326 29.8015 52.4126 29.7461C52.0709 28.9263 51.7427 28.1065 51.3737 27.2874L47.9768 19.2334C47.467 18.0352 46.9665 16.8299 46.456 15.631C46.4581 15.6046 46.4545 15.5781 46.4452 15.5533C46.4359 15.5285 46.4213 15.5061 46.4023 15.4877H49.755L49.8265 15.6532C50.2683 16.7898 50.715 17.9239 51.1664 19.0557L53.779 25.6751C53.8349 25.8248 53.8774 25.9793 53.9063 26.1366C53.947 26.3293 53.9871 26.5293 54.0343 26.722C54.04 26.7509 54.0539 26.7775 54.0743 26.7987Z" fill="white"/>
<path d="M93.4412 29.8613C93.4398 29.8362 93.4398 29.8111 93.4412 29.7861V15.4997C93.4391 15.4837 93.4391 15.4676 93.4412 15.4517H96.3491C96.3513 15.4815 96.3513 15.5114 96.3491 15.5412V29.665C96.352 29.7199 96.352 29.7749 96.3491 29.8298C96.3486 29.844 96.3429 29.8575 96.333 29.8677C96.323 29.8779 96.3097 29.8841 96.2955 29.885H93.4141L93.4412 29.8613Z" fill="white"/>
</svg>
